<svg xmlns="http://www.w3.org/2000/svg" viewBox="0 0 64 64" fill="none">
  <defs>
    <linearGradient id="bg" x1="0" y1="0" x2="1" y2="1">
      <stop offset="0%" stop-color="#1a1a2e"/>
      <stop offset="100%" stop-color="#16213e"/>
    </linearGradient>
    <linearGradient id="gold" x1="0" y1="0" x2="1" y2="1">
      <stop offset="0%" stop-color="#f5dc8a"/>
      <stop offset="100%" stop-color="#d4a843"/>
    </linearGradient>
  </defs>
  <rect width="64" height="64" rx="14" fill="url(#bg)"/>
  <!-- Shield -->
  <path d="M32,8 L50,16 L50,32 C50,45 42,53 32,58 C22,53 14,45 14,32 L14,16 Z"
        stroke="url(#gold)" stroke-width="2" fill="none" opacity="0.8"/>
  <!-- Brain (simplified) -->
  <path d="M29,18 C24,18 20,22 20,26 C20,30 23,33 27,33" stroke="#5eead4" stroke-width="1.5" fill="none" stroke-linecap="round" opacity="0.7"/>
  <path d="M35,18 C40,18 44,22 44,26 C44,30 41,33 37,33" stroke="#60a5fa" stroke-width="1.5" fill="none" stroke-linecap="round" opacity="0.7"/>
  <!-- Divider -->
  <line x1="22" y1="36" x2="42" y2="36" stroke="#d4a843" stroke-width="0.8" opacity="0.2"/>
  <!-- Calculator (simplified) -->
  <rect x="24" y="39" width="16" height="12" rx="2" stroke="#d4a843" stroke-width="1.2" fill="none" opacity="0.5"/>
  <rect x="26" y="41" width="12" height="4" rx="1" fill="#d4a843" opacity="0.1"/>
  <text x="36" y="44.5" text-anchor="end" font-family="monospace" font-size="3.5" font-weight="700" fill="#2ecc71" opacity="0.8">%</text>
</svg>
