<svg xmlns="http://www.w3.org/2000/svg" viewBox="0 0 64 64" fill="none">
  <defs>
    <linearGradient id="bg" x1="0" y1="0" x2="1" y2="1">
      <stop offset="0%" stop-color="#1a1a2e"/>
      <stop offset="100%" stop-color="#16213e"/>
    </linearGradient>
    <linearGradient id="gold" x1="0" y1="0" x2="1" y2="1">
      <stop offset="0%" stop-color="#f5dc8a"/>
      <stop offset="100%" stop-color="#d4a843"/>
    </linearGradient>
  </defs>
  <rect width="64" height="64" rx="14" fill="url(#bg)"/>
  <!-- Shield -->
  <path d="M32,8 L52,17 L52,32 C52,46 43,54 32,59 C21,54 12,46 12,32 L12,17 Z"
        stroke="url(#gold)" stroke-width="2.5" fill="none" opacity="0.85"/>
  <!-- Scale -->
  <circle cx="32" cy="18" r="2.5" fill="url(#gold)"/>
  <line x1="32" y1="20" x2="32" y2="42" stroke="url(#gold)" stroke-width="2.5" stroke-linecap="round"/>
  <line x1="24" y1="42" x2="40" y2="42" stroke="url(#gold)" stroke-width="2.5" stroke-linecap="round"/>
  <line x1="22" y1="26" x2="42" y2="26" stroke="url(#gold)" stroke-width="2" stroke-linecap="round"/>
  <path d="M17,32 C17,36 27,36 27,32" stroke="#d4a843" stroke-width="1.5" fill="none" stroke-linecap="round" opacity="0.6"/>
  <path d="M37,34 C37,38 47,38 47,34" stroke="#2ecc71" stroke-width="1.5" fill="none" stroke-linecap="round" opacity="0.7"/>
</svg>
